<svg width="65" height="64" viewBox="0 0 65 64" fill="none" xmlns="http://www.w3.org/2000/svg">
<path fill-rule="evenodd" clip-rule="evenodd" d="M9.59091 17.1517C8.98841 17.7543 8.98841 18.7311 9.59091 19.3336C10.1934 19.9361 11.1702 19.9361 11.7727 19.3336L12.8643 18.242L18.3181 23.6959L13.9545 28.0596C13.352 28.6621 13.352 29.6391 13.9545 30.2415C14.5571 30.844 15.5339 30.844 16.1363 30.2415L18.3176 28.0601L22.2575 32H11.6659C10.8263 32 10.021 32.3371 9.42729 32.9372C8.83359 33.5372 8.50004 34.3511 8.50004 35.1996V39.9979C8.49193 43.7243 9.743 47.3417 12.0462 50.2517C14.3495 53.1617 17.5667 55.1896 21.1656 56C24.7649 55.1901 27.9827 53.1623 30.2863 50.2523C31.9091 48.2024 33.0096 45.8015 33.5156 43.2584L36.8636 46.6067C39.1003 48.8433 42.3688 49.4193 45.1369 48.3347L46.6816 49.8793C47.4893 50.6872 48.6336 50.9535 49.6632 50.6781L53.2273 54.2424C53.8299 54.8449 54.8067 54.8449 55.4091 54.2424C56.0116 53.64 56.0116 52.6631 55.4091 52.0605L51.8444 48.4957C52.1189 47.4665 51.8525 46.3231 51.0452 45.5156L49.5005 43.9709C49.7717 43.2789 49.9392 42.5556 50.0028 41.8248C50.0507 41.274 50.0397 40.7189 49.9696 40.1701C49.7609 38.5347 49.0287 36.9532 47.7727 35.6972L29.2267 17.1508L31.4091 14.9685C32.0115 14.366 32.0115 13.3891 31.4091 12.7866C30.8065 12.1841 29.8297 12.1841 29.2272 12.7866L24.8636 17.1503L19.4097 11.6964L20.5 10.6062C21.1024 10.0037 21.1024 9.0268 20.5 8.42429C19.8975 7.82179 18.9207 7.82179 18.3181 8.42429L9.59091 17.1517ZM35.8956 41.8672L43.0333 34.7292L27.3411 19.0365L20.2032 26.1745L26.0287 32H30.6675C31.5071 32 32.3123 32.3371 32.906 32.9372C33.4997 33.5372 33.8333 34.3511 33.8333 35.1996V39.8048L35.8956 41.8672ZM22.978 19.036L17.5241 13.582L14.7499 16.3564L20.2037 21.8103L22.978 19.036ZM48.0609 46.3025C47.9681 46.4059 47.872 46.5073 47.7727 46.6067C47.6732 46.706 47.5719 46.8021 47.4685 46.8951L48.5672 47.9937C48.7308 48.1573 48.996 48.1573 49.1596 47.9937C49.3232 47.8301 49.3232 47.5649 49.1596 47.4013L48.0609 46.3025ZM45.2152 36.9111L45.8871 37.5829C46.6944 38.3904 47.1711 39.4032 47.3171 40.4532C47.3696 40.8312 47.3793 41.2141 47.3461 41.5939C47.3043 42.0721 47.1945 42.5456 47.0168 42.9985L44.1648 45.8507C42.3531 46.5616 40.2133 46.1851 38.7492 44.7208L38.0773 44.0491L45.2152 36.9111ZM23.1667 38.6667C23.1667 37.9303 22.5697 37.3333 21.8333 37.3333C21.0969 37.3333 20.5 37.9303 20.5 38.6667V41.3333H17.8333C17.0969 41.3333 16.5 41.9303 16.5 42.6667C16.5 43.4031 17.0969 44 17.8333 44H20.5V46.6667C20.5 47.4031 21.0969 48 21.8333 48C22.5697 48 23.1667 47.4031 23.1667 46.6667V44H25.8333C26.5697 44 27.1667 43.4031 27.1667 42.6667C27.1667 41.9303 26.5697 41.3333 25.8333 41.3333H23.1667V38.6667Z" fill="#198A5D"/>
</svg>
