<svg width="50" height="51" viewBox="0 0 50 51" fill="none" xmlns="http://www.w3.org/2000/svg">
<rect x="0.5" y="1" width="49" height="49" rx="24.5" fill="#198A5D"/>
<rect x="0.5" y="1" width="49" height="49" rx="24.5" stroke="#126343"/>
<path fill-rule="evenodd" clip-rule="evenodd" d="M13.5453 18.4094C13.244 18.7106 13.244 19.199 13.5453 19.5003C13.8465 19.8016 14.3349 19.8016 14.6362 19.5003L15.182 18.9545L17.9089 21.6814L15.7271 23.8633C15.4258 24.1646 15.4258 24.653 15.7271 24.9542C16.0283 25.2555 16.5167 25.2555 16.818 24.9542L17.9086 23.8635L27.1816 33.1367C28.2999 34.255 29.9342 34.5431 31.3182 34.0008L32.0906 34.7732C32.4945 35.1771 33.0666 35.3102 33.5814 35.1726L35.3635 36.9547C35.6647 37.256 36.1531 37.256 36.4544 36.9547C36.7556 36.6534 36.7556 36.165 36.4544 35.8638L34.672 34.0814C34.8093 33.5668 34.6761 32.995 34.2724 32.5913L33.5001 31.819C34.0425 30.4348 33.7545 28.8004 32.6362 27.682L23.3632 18.4088L24.4543 17.3177C24.7556 17.0164 24.7556 16.528 24.4543 16.2268C24.1531 15.9255 23.6646 15.9255 23.3634 16.2268L21.1816 18.4086L18.4547 15.6817L18.9998 15.1366C19.301 14.8353 19.301 14.3469 18.9998 14.0456C18.6986 13.7444 18.2102 13.7444 17.9089 14.0456L13.5453 18.4094ZM20.2388 19.3515L17.5119 16.6245L16.1248 18.0116L18.8517 20.7386L20.2388 19.3515ZM22.4204 19.3517L18.8514 22.9207L21.7888 25.8581L25.3577 22.289L22.4204 19.3517ZM22.8796 26.949L24.516 28.5854C25.4584 29.5278 24.764 28.8334 25.607 29.6764L26.6976 30.767C27.4307 31.5001 27.2634 31.3328 27.7885 31.858L28.1244 32.1939C28.8565 32.926 29.9264 33.1142 30.8323 32.7587L32.2582 31.3328C32.6137 30.4269 32.4254 29.357 31.6934 28.6249L26.4486 23.38L22.8796 26.949ZM33.3481 33.5553C33.3425 33.5479 33.3363 33.5408 33.3296 33.5342L32.7802 32.9847C32.7338 33.0364 32.6858 33.087 32.6362 33.1367C32.5864 33.1864 32.5357 33.2345 32.484 33.281L33.0334 33.8304C33.0402 33.8371 33.0473 33.8433 33.0547 33.849C33.0884 33.7892 33.1307 33.7328 33.1816 33.6819C33.2324 33.6312 33.2885 33.5889 33.3481 33.5553Z" fill="white"/>
<path d="M15.1823 18.0114L14.7109 18.4828L14.1651 19.0287C14.1242 19.0696 14.0579 19.0696 14.017 19.0287C13.9761 18.9878 13.9761 18.9214 14.017 18.8805L18.3806 14.5168L17.9092 14.0454L18.3806 14.5168C18.4215 14.4759 18.4878 14.4759 18.5287 14.5168C18.5696 14.5577 18.5696 14.624 18.5287 14.6649L17.9836 15.2101L17.5122 15.6815L17.0408 16.1529L15.6537 17.54L15.1823 18.0114ZM18.3806 22.1526L18.852 21.6812L19.3234 21.2098L20.7106 19.8226L21.1819 19.3512L21.6533 18.8798L23.8352 16.698C23.876 16.657 23.9424 16.657 23.9832 16.698C24.0242 16.7388 24.0242 16.8052 23.9832 16.8461L22.8921 17.9372L22.4207 18.4086L21.9493 18.88L18.3804 22.4491L17.909 22.9205L17.4376 23.3919L16.3469 24.4826C16.306 24.5235 16.2397 24.5235 16.1988 24.4826C16.1579 24.4417 16.1579 24.3754 16.1988 24.3345L18.3806 22.1526ZM23.5736 28.5854L21.8303 26.842L21.9214 26.751L21.3166 26.2884C21.2264 26.2194 21.1388 26.1447 21.0543 26.0644C21.1945 26.1976 21.3442 26.316 21.5014 26.4192L21.955 26.7174L22.3388 26.3335L25.8336 22.8386L26.2175 22.4548L25.9194 22.0011C25.8172 21.8455 25.7001 21.6972 25.5685 21.5582C25.6473 21.6414 25.7206 21.7276 25.7886 21.8164L26.2512 22.4211L26.342 22.3302L32.165 28.1533C33.0894 29.0776 33.3289 30.4292 32.8797 31.5755L32.7205 31.9816L33.029 32.2901L33.8013 33.0625C34.03 33.2912 34.1067 33.6152 34.0282 33.9093L33.9292 34.2807L34.201 34.5526L35.9833 36.335C36.0242 36.3758 36.0242 36.4422 35.9833 36.4831C35.9424 36.524 35.8761 36.524 35.8352 36.4831L34.0532 34.701L33.7812 34.429L33.4096 34.5283C33.1153 34.607 32.7911 34.5304 32.5624 34.3016L31.79 33.5292L31.4815 33.2207L31.0753 33.3799C29.9856 33.8069 28.7103 33.6114 27.793 32.7968L29.4995 31.0903C30.061 30.5287 30.061 29.6182 29.4995 29.0566L29.0281 29.528L29.4995 29.0566C28.9379 28.495 28.0274 28.495 27.4658 29.0566L25.7553 30.7671L25.6073 30.6191L27.3178 28.9085C27.8794 28.3469 27.8794 27.4364 27.3178 26.8748C26.7562 26.3132 25.8457 26.3132 25.2841 26.8748L23.5736 28.5854Z" fill="white" stroke="white" stroke-width="0.5"/>
</svg>
